<svg xmlns="http://www.w3.org/2000/svg" width="31.583" height="31.056" viewBox="0 0 31.583 31.056">
  <path id="Tracé_26051" data-name="Tracé 26051" d="M360.694,416.333l-13.82-14.775a1.968,1.968,0,0,0-2.874,0l-13.82,14.775a1.966,1.966,0,0,0,1.436,3.31h2.963v10.38a1.968,1.968,0,0,0,1.967,1.967h17.891a1.968,1.968,0,0,0,1.967-1.967v-10.38h2.852A1.966,1.966,0,0,0,360.694,416.333Zm-15.257,6.133A4.567,4.567,0,1,1,350,417.9,4.567,4.567,0,0,1,345.437,422.466Z" transform="translate(-329.646 -400.934)" fill="#fff"/>
</svg>
