<svg xmlns="http://www.w3.org/2000/svg" width="11.734" height="11.728" viewBox="0 0 11.734 11.728">
  <path id="PhSoccerBallFill" d="M35.723,30.25a.271.271,0,0,0,0-.068c.006-.107.011-.209.011-.316a5.822,5.822,0,0,0-1.3-3.673.31.31,0,0,0-.079-.1,5.861,5.861,0,0,0-2.319-1.681l-.062-.023a5.833,5.833,0,0,0-4.22,0l-.062.023A5.861,5.861,0,0,0,25.376,26.1a.31.31,0,0,0-.079.1A5.822,5.822,0,0,0,24,29.866c0,.107.006.209.011.316a.271.271,0,0,0,0,.068,5.878,5.878,0,0,0,.886,2.73.558.558,0,0,0,.062.1,5.884,5.884,0,0,0,3.4,2.46h.017a5.878,5.878,0,0,0,2.979,0h.017a5.884,5.884,0,0,0,3.4-2.46.558.558,0,0,0,.062-.1,5.878,5.878,0,0,0,.886-2.73Zm-9.212-1,.745.243.716,2.211-.457.632H25.563a4.863,4.863,0,0,1-.632-1.935Zm6.713,0L34.8,30.4a4.863,4.863,0,0,1-.632,1.935H32.219l-.457-.632.716-2.211Zm.322-2.713-.6,1.856-.745.243-1.879-1.371v-.779l1.58-1.151a4.908,4.908,0,0,1,1.647,1.2Zm-5.709-1.2,1.58,1.151v.779l-1.879,1.371-.745-.243-.6-1.856A4.908,4.908,0,0,1,27.836,25.336Zm1.015,9.387-.6-1.856.457-.632h2.324l.457.632-.6,1.856a4.863,4.863,0,0,1-2.031,0Z" transform="translate(-24 -23.999)" fill="#858282"/>
</svg>
